<svg width="64" height="64" viewBox="0 0 64 64" fill="none" xmlns="http://www.w3.org/2000/svg">
<path d="M26 56C30.7468 56 35.3869 54.5924 39.3337 51.9553C43.2805 49.3181 46.3566 45.5698 48.1731 41.1844C49.9896 36.799 50.4649 31.9734 49.5388 27.3178C48.6128 22.6623 46.327 18.3859 42.9706 15.0294C39.6141 11.673 35.3377 9.38721 30.6822 8.46116C26.0266 7.53512 21.201 8.0104 16.8156 9.8269C12.4302 11.6434 8.68188 14.7195 6.04473 18.6663C3.40758 22.6131 2 27.2533 2 32C2.00741 38.3629 4.53835 44.4631 9.03762 48.9624C13.5369 53.4617 19.6371 55.9926 26 56V56ZM26 10C30.3512 10 34.6047 11.2903 38.2225 13.7077C41.8404 16.1251 44.6602 19.561 46.3253 23.581C47.9905 27.601 48.4261 32.0244 47.5773 36.292C46.7284 40.5596 44.6331 44.4796 41.5564 47.5564C38.4796 50.6331 34.5596 52.7284 30.292 53.5773C26.0244 54.4262 21.6009 53.9905 17.581 52.3254C13.561 50.6602 10.1251 47.8404 7.70767 44.2226C5.29028 40.6047 4 36.3512 4 32C4.00662 26.1673 6.32659 20.5753 10.451 16.451C14.5753 12.3266 20.1673 10.0066 26 10V10Z" fill="#26ff93" id="id_101"></path>
<path d="M59 2.00001C58.2932 1.99867 57.6087 2.24752 57.0678 2.7025C56.5268 3.15748 56.1644 3.78922 56.0446 4.48583C55.9248 5.18243 56.0555 5.89895 56.4134 6.50847C56.7713 7.11799 57.3333 7.58118 58 7.81601V14H46C45.7348 14 45.4804 14.1054 45.2929 14.2929C45.1054 14.4804 45 14.7348 45 15C45 15.2652 45.1054 15.5196 45.2929 15.7071C45.4804 15.8946 45.7348 16 46 16H59C59.2652 16 59.5196 15.8946 59.7071 15.7071C59.8946 15.5196 60 15.2652 60 15V7.81601C60.6667 7.58118 61.2287 7.11799 61.5866 6.50847C61.9445 5.89895 62.0752 5.18243 61.9554 4.48583C61.8356 3.78922 61.4732 3.15748 60.9322 2.7025C60.3913 2.24752 59.7068 1.99867 59 2.00001V2.00001Z" fill="#26ff93" id="id_102"></path>
<path d="M59 22C58.3817 22.0026 57.7794 22.1961 57.2753 22.5541C56.7712 22.9121 56.3901 23.4171 56.184 24H52C51.7348 24 51.4804 24.1054 51.2929 24.2929C51.1054 24.4804 51 24.7348 51 25C51 25.2652 51.1054 25.5196 51.2929 25.7071C51.4804 25.8946 51.7348 26 52 26H56.184C56.3682 26.5172 56.6911 26.9738 57.1172 27.3199C57.5434 27.666 58.0565 27.8883 58.6005 27.9625C59.1444 28.0367 59.6983 27.96 60.2016 27.7407C60.7049 27.5214 61.1383 27.168 61.4543 26.7191C61.7704 26.2702 61.9569 25.743 61.9936 25.1952C62.0304 24.6475 61.9158 24.1001 61.6625 23.6131C61.4091 23.126 61.0268 22.7179 60.5573 22.4334C60.0877 22.149 59.549 21.999 59 22V22Z" fill="#26ff93" id="id_103"></path>
<path d="M60 56.184V49C60 48.7348 59.8946 48.4804 59.7071 48.2929C59.5196 48.1054 59.2652 48 59 48H46C45.7348 48 45.4804 48.1054 45.2929 48.2929C45.1054 48.4804 45 48.7348 45 49C45 49.2652 45.1054 49.5196 45.2929 49.7071C45.4804 49.8946 45.7348 50 46 50H58V56.184C57.3328 56.4199 56.7704 56.8841 56.4124 57.4945C56.0543 58.1049 55.9235 58.8222 56.0432 59.5197C56.1629 60.2172 56.5253 60.85 57.0663 61.3061C57.6074 61.7622 58.2923 62.0124 59 62.0124C59.7077 62.0124 60.3926 61.7622 60.9337 61.3061C61.4747 60.85 61.8371 60.2172 61.9568 59.5197C62.0765 58.8222 61.9457 58.1049 61.5876 57.4945C61.2296 56.8841 60.6672 56.4199 60 56.184Z" fill="#26ff93" id="id_104"></path>
<path d="M59 36C58.3817 36.0026 57.7794 36.1961 57.2753 36.5541C56.7712 36.9121 56.3901 37.4171 56.184 38H52C51.7348 38 51.4804 38.1054 51.2929 38.2929C51.1054 38.4804 51 38.7348 51 39C51 39.2652 51.1054 39.5196 51.2929 39.7071C51.4804 39.8946 51.7348 40 52 40H56.184C56.3682 40.5172 56.6911 40.9738 57.1172 41.3199C57.5434 41.666 58.0565 41.8883 58.6005 41.9625C59.1444 42.0367 59.6983 41.96 60.2016 41.7407C60.7049 41.5214 61.1383 41.168 61.4543 40.7191C61.7704 40.2702 61.9569 39.743 61.9936 39.1952C62.0304 38.6475 61.9158 38.1001 61.6625 37.6131C61.4091 37.126 61.0268 36.7179 60.5573 36.4334C60.0877 36.149 59.549 35.999 59 36V36Z" fill="#26ff93" id="id_105"></path>
<path d="M24.9999 20.5332L20.3809 28.0392L24.9999 26.3072V20.5332Z" fill="#26ff93" id="id_106"></path>
<path d="M24.999 32.3824V28.4434L20.498 30.1314L24.999 32.3824Z" fill="#26ff93" id="id_107"></path>
<path d="M24.9995 43.4669V38.6179L20.6895 36.4629L24.9995 43.4669Z" fill="#26ff93" id="id_108"></path>
<path d="M27 20.5332V26.3072L31.619 28.0392L27 20.5332Z" fill="#26ff93" id="id_109"></path>
<path d="M27 28.4434V32.3824L31.501 30.1314L27 28.4434Z" fill="#26ff93" id="id_110"></path>
<path d="M26 51C29.7578 51 33.4313 49.8857 36.5558 47.7979C39.6804 45.7102 42.1156 42.7428 43.5537 39.271C44.9918 35.7992 45.368 31.9789 44.6349 28.2933C43.9018 24.6077 42.0922 21.2222 39.435 18.565C36.7778 15.9078 33.3924 14.0982 29.7067 13.3651C26.0211 12.632 22.2008 13.0082 18.729 14.4463C15.2572 15.8844 12.2898 18.3196 10.2021 21.4442C8.11433 24.5687 7 28.2422 7 32C7 37.0391 9.00178 41.8718 12.565 45.435C16.1282 48.9982 20.9609 51 26 51V51ZM34.852 34.524L26.852 47.524C26.7623 47.6687 26.6372 47.7881 26.4884 47.8709C26.3397 47.9538 26.1722 47.9972 26.002 47.9972C25.8318 47.9972 25.6643 47.9538 25.5156 47.8709C25.3668 47.7881 25.2417 47.6687 25.152 47.524L17.152 34.524C17.0375 34.3388 16.9867 34.1212 17.0072 33.9044C17.0276 33.6876 17.1183 33.4835 17.2654 33.3229C17.4125 33.1623 17.608 33.0542 17.8221 33.0148C18.0363 32.9755 18.2575 33.0072 18.452 33.105L26 36.882L33.553 33.1C33.7475 33.0022 33.9687 32.9705 34.1829 33.0098C34.397 33.0492 34.5925 33.1573 34.7396 33.3179C34.8867 33.4785 34.9774 33.6826 34.9978 33.8994C35.0183 34.1162 34.9675 34.3338 34.853 34.519L34.852 34.524ZM17.152 29.476L25.152 16.476C25.2479 16.3396 25.3752 16.2283 25.5231 16.1515C25.671 16.0746 25.8353 16.0345 26.002 16.0345C26.1687 16.0345 26.333 16.0746 26.4809 16.1515C26.6288 16.2283 26.7561 16.3396 26.852 16.476L34.852 29.476H34.845C34.9201 29.593 34.9695 29.7246 34.9899 29.8621C35.0103 29.9995 35.0014 30.1398 34.9635 30.2736C34.9257 30.4073 34.86 30.5315 34.7706 30.638C34.6812 30.7444 34.5702 30.8306 34.445 30.891L26.445 34.891C26.3062 34.9604 26.1532 34.9965 25.998 34.9965C25.8428 34.9965 25.6898 34.9604 25.551 34.891L17.551 30.891C17.4258 30.8306 17.3148 30.7444 17.2254 30.638C17.136 30.5315 17.0703 30.4073 17.0325 30.2736C16.9946 30.1398 16.9857 29.9995 17.0061 29.8621C17.0265 29.7246 17.0759 29.593 17.151 29.476H17.152Z" fill="#26ff93" id="id_111"></path>
<path d="M27 43.4669L31.31 36.4629L27 38.6179V43.4669Z" fill="#26ff93" id="id_112"></path>
</svg>